<svg width="136" height="143" viewBox="0 0 136 143" fill="none" xmlns="http://www.w3.org/2000/svg">
<rect width="84" height="143" fill="#FFAB18"/>
<rect x="34" y="25" width="100" height="85" stroke="white" stroke-width="4"/>
<path d="M70.7671 49.3794C69.9868 49.3794 69.3781 49.7004 68.9409 50.3423C68.5037 50.9787 68.2852 51.8586 68.2852 52.9819C68.2852 55.3172 69.1733 56.4849 70.9497 56.4849C71.4865 56.4849 72.0067 56.4102 72.5103 56.2607C73.0138 56.1113 73.5202 55.9315 74.0293 55.7212V58.4937C73.0166 58.9419 71.8711 59.166 70.5928 59.166C68.7611 59.166 67.3555 58.6348 66.376 57.5723C65.402 56.5098 64.915 54.9741 64.915 52.9653C64.915 51.7091 65.1502 50.6051 65.6206 49.6533C66.0965 48.7015 66.7772 47.971 67.6626 47.4619C68.5535 46.9473 69.5994 46.6899 70.8003 46.6899C72.1118 46.6899 73.3652 46.9749 74.5605 47.5449L73.5562 50.1265C73.1079 49.9162 72.6597 49.7391 72.2114 49.5952C71.7632 49.4513 71.2817 49.3794 70.7671 49.3794ZM83.8491 59L83.2515 56.7256H79.3086L78.6943 59H75.0918L79.0513 46.8145H83.4258L87.4351 59H83.8491ZM82.5708 54.0361L82.0479 52.0439C81.9261 51.6012 81.7767 51.0285 81.5996 50.3257C81.4281 49.6229 81.3146 49.1193 81.2593 48.8149C81.2095 49.0972 81.1099 49.562 80.9604 50.2095C80.8166 50.8569 80.4928 52.1325 79.9893 54.0361H82.5708ZM92.0337 54.584V59H88.7549V46.8643H92.731C96.0291 46.8643 97.6782 48.0596 97.6782 50.4502C97.6782 51.8558 96.992 52.9432 95.6196 53.7124L99.1558 59H95.437L92.8638 54.584H92.0337ZM92.0337 52.1187H92.6479C93.7935 52.1187 94.3662 51.6123 94.3662 50.5996C94.3662 49.764 93.8045 49.3462 92.6812 49.3462H92.0337V52.1187ZM47.5332 77.584V82H44.2544V69.8643H48.2305C51.5286 69.8643 53.1777 71.0596 53.1777 73.4502C53.1777 74.8558 52.4915 75.9432 51.1191 76.7124L54.6553 82H50.9365L48.3633 77.584H47.5332ZM47.5332 75.1187H48.1475C49.293 75.1187 49.8657 74.6123 49.8657 73.5996C49.8657 72.764 49.304 72.3462 48.1807 72.3462H47.5332V75.1187ZM62.9644 82H55.7593V69.8643H62.9644V72.4956H59.0381V74.4048H62.6738V77.0361H59.0381V79.3271H62.9644V82ZM76.644 82H72.3442L67.9116 73.4502H67.8369C67.9421 74.7949 67.9946 75.8215 67.9946 76.5298V82H65.0894V69.8643H69.3726L73.7886 78.2979H73.8384C73.7609 77.0749 73.7222 76.0926 73.7222 75.3511V69.8643H76.644V82ZM84.6211 82H81.3423V72.5454H78.3789V69.8643H87.5762V72.5454H84.6211V82ZM96.7568 82L96.1592 79.7256H92.2163L91.6021 82H87.9995L91.959 69.8145H96.3335L100.343 82H96.7568ZM95.4785 77.0361L94.9556 75.0439C94.8338 74.6012 94.6844 74.0285 94.5073 73.3257C94.3358 72.6229 94.2223 72.1193 94.167 71.8149C94.1172 72.0972 94.0176 72.562 93.8682 73.2095C93.7243 73.8569 93.4006 75.1325 92.897 77.0361H95.4785ZM101.663 82V69.8643H104.941V79.3521H109.615V82H101.663ZM119.493 78.3145C119.493 79.0671 119.302 79.7367 118.92 80.3232C118.538 80.9043 117.987 81.3581 117.268 81.6846C116.549 82.0055 115.705 82.166 114.736 82.166C113.928 82.166 113.25 82.1107 112.703 82C112.155 81.8838 111.585 81.6846 110.993 81.4023V78.4805C111.618 78.8014 112.268 79.0532 112.943 79.2358C113.618 79.4129 114.238 79.5015 114.803 79.5015C115.29 79.5015 115.647 79.4185 115.874 79.2524C116.1 79.0809 116.214 78.8623 116.214 78.5967C116.214 78.4307 116.167 78.2868 116.073 78.165C115.984 78.0378 115.838 77.9105 115.633 77.7832C115.434 77.6559 114.897 77.3958 114.022 77.0029C113.231 76.6432 112.636 76.2946 112.238 75.957C111.845 75.6195 111.552 75.2321 111.358 74.7949C111.17 74.3577 111.076 73.8403 111.076 73.2427C111.076 72.1248 111.482 71.2533 112.296 70.6279C113.109 70.0026 114.227 69.6899 115.649 69.6899C116.906 69.6899 118.187 69.9805 119.493 70.5615L118.488 73.0933C117.354 72.5731 116.374 72.313 115.55 72.313C115.124 72.313 114.814 72.3877 114.62 72.5371C114.426 72.6865 114.33 72.8719 114.33 73.0933C114.33 73.3312 114.451 73.5443 114.695 73.7324C114.944 73.9206 115.613 74.2637 116.704 74.7617C117.75 75.2321 118.474 75.7384 118.878 76.2808C119.288 76.8175 119.493 77.4954 119.493 78.3145Z" fill="white"/>
</svg>
